# xmcd CD database file
#
# Track frame offsets:
#	150
#	11634
#	23344
#	34758
#	44638
#	55863
#	68258
#	77808
#	89338
#	101503
#	113039
#	122324
#
# Disc length: 1833 seconds
#
# Revision: 4
# Processed by: cddbd v1.5.1PL2 Copyright (c) Steve Scherf et al.
# Submitted via: CDex 1.70beta2
#
DISCID=8507270c
DTITLE=Various Artist - The Sound oF Country
DYEAR=2002
DGENRE=Country
TTITLE0=Roy Acuff - Blue Eyes Crying In The Rain
TTITLE1=Patsy Cline - Walking After Midnight
TTITLE2=Don Gibson - Oh, Lonesome Me
TTITLE3=Merle Haggard - Mama Tried
TTITLE4=Roger Miller - King Of The Road
TTITLE5=Wilma Lee and Stoney Cooper - Big Midnight Special
TTITLE6=Leona Williams - When I Stop Dreaming
TTITLE7=Bill Carlisle - No Help Wanted
TTITLE8=Frank Ifield - Sweet Memories
TTITLE9=Conway Twitty - It's Only Make Believe
TTITLE10=Bob Luman - I Love You Because
TTITLE11=Whitey Shafer - All My Ex's Live In Texas
EXTD=YEAR: 2002
EXTT0=
EXTT1=
EXTT2=
EXTT3=
EXTT4=
EXTT5=
EXTT6=
EXTT7=
EXTT8=
EXTT9=
EXTT10=
EXTT11=
PLAYORDER=
